<?xml version="1.0" encoding="UTF-8"?>
<svg enable-background="new 0 0 50 50" id="Слой_1" version="1.1" viewBox="0 0 50 50" xml:space="preserve" xmlns="http://www.w3.org/2000/svg" xmlns:xlink="http://www.w3.org/1999/xlink"><g><path d="M42.2,48.7H5.3c-2.2,0-4-1.8-4-4V5.3c0-2.2,1.8-4,4-4h36.9c2.2,0,4,1.8,4,4v39.5   C46.2,46.9,44.4,48.7,42.2,48.7z" fill="#FFFFFF"/><path d="M39.7,48.7H5.3c-2.2,0-4-1.8-4-4V8c0-2.2,1.8-4,4-4h34.4c2.2,0,4,1.8,4,4v36.7   C43.7,46.9,41.9,48.7,39.7,48.7z" fill="#E1E1E6"/><ellipse cx="24" cy="27.7" fill="#C3C7D1" rx="17.3" ry="16.7"/><ellipse cx="24" cy="24.7" fill="#E1E1E6" rx="17.3" ry="16.7"/><rect fill="#FFFFFF" height="2" width="39.1" x="4.6" y="23"/><ellipse cx="24" cy="27.7" fill="#C3C7D1" rx="10.2" ry="9.8"/><path d="M5.2,24.7h34.6c1.2,0,2.2,1,2.2,2.2v0c0,1.2-1,2.2-2.2,2.2H5.2C4,29.2,3,28.2,3,27v0   C3,25.7,4,24.7,5.2,24.7z" fill="#C3C7D1"/><path d="M5.2,22.8h34.6c1.2,0,2.2,1,2.2,2.2v0c0,1.2-1,2.2-2.2,2.2H5.2C4,27.2,3,26.2,3,25v0   C3,23.8,4,22.8,5.2,22.8z" fill="#E1E1E6"/><path d="M4.9,23.3h35.4c0.5,0,0.9,0.4,0.9,0.9v0c0,0.5-0.4,0.9-0.9,0.9H4.9C4.4,25,4,24.6,4,24.1v0   C4,23.7,4.4,23.3,4.9,23.3z" fill="#FFFFFF"/><path d="M38,17.1L13.5,41.6c-0.9,0.9-2.3,0.9-3.2,0l0,0c-0.9-0.9-0.9-2.3,0-3.2l24.5-24.5c0.9-0.9,2.3-0.9,3.2,0   l0,0C38.8,14.8,38.8,16.2,38,17.1z" fill="#C3C7D1"/><path d="M38,14.6L13.5,39.1c-0.9,0.9-2.3,0.9-3.2,0l0,0c-0.9-0.9-0.9-2.3,0-3.2l24.5-24.5c0.9-0.9,2.3-0.9,3.2,0   l0,0C38.8,12.3,38.8,13.7,38,14.6z" fill="#E1E1E6"/><path d="M26.2,7.9v34.6c0,1.2-1,2.2-2.2,2.2h0c-1.2,0-2.2-1-2.2-2.2V7.9c0-1.2,1-2.2,2.2-2.2h0   C25.2,5.7,26.2,6.7,26.2,7.9z" fill="#FFFFFF"/><path d="M26.2,9.2v33.3c0,1.2-1,2.2-2.2,2.2h0c-1.2,0-2.2-1-2.2-2.2V9.2C21.8,8,22.8,7,24,7h0   C25.2,7,26.2,8,26.2,9.2z" fill="#E1E1E6"/><path d="M13.1,13.9l24.5,24.5c0.9,0.9,0.9,2.3,0,3.2l0,0c-0.9,0.9-2.3,0.9-3.2,0L9.9,17.1c-0.9-0.9-0.9-2.3,0-3.2   l0,0C10.8,13,12.2,13,13.1,13.9z" fill="#C3C7D1"/><path d="M13.1,10.9l24.5,24.5c0.9,0.9,0.9,2.3,0,3.2l0,0c-0.9,0.9-2.3,0.9-3.2,0L9.9,14.1c-0.9-0.9-0.9-2.3,0-3.2   l0,0C10.8,10,12.2,10,13.1,10.9z" fill="#E1E1E6"/><rect fill="#FFFFFF" height="1.7" transform="matrix(0.7071 0.7071 -0.7071 0.7071 24.2663 -10.2456)" width="39.9" x="4.6" y="23.3"/><rect fill="#FFFFFF" height="1.7" transform="matrix(0.7071 -0.7071 0.7071 0.7071 -9.9523 23.973)" width="39.9" x="4" y="23.1"/><ellipse cx="24" cy="25.7" fill="#FFFFFF" rx="10.2" ry="9.9"/><ellipse cx="24" cy="26.7" fill="#E1E1E6" rx="9.4" ry="8.8"/><ellipse cx="24" cy="25.7" fill="#FFFFFF" rx="5.5" ry="5.3"/><ellipse cx="24" cy="27" fill="#E1E1E6" rx="4.8" ry="4"/><g><path d="M48,8c0-4.4-3.6-8-8-8H7C2.6,0,0,3.6,0,8v34c0,4.4,3.6,8,8,8h33c4.4,0,7-3.6,7-8V8z M46,42    c0,3.3-2.7,6-6,6H8c-3.3,0-6-2.7-6-6V8c0-3.3,2.7-6,6-6h32c3.3,0,6,2.7,6,6V42z" fill="#464C63"/><circle cx="6" cy="7" fill="#464C63" r="2"/><circle cx="41" cy="7" fill="#464C63" r="2"/><circle cx="6" cy="43" fill="#464C63" r="2"/><path d="M24,19c-3.3,0-6,2.7-6,6s2.7,6,6,6s6-2.7,6-6S27.3,19,24,19z M24,29c-2.2,0-4-1.8-4-4s1.8-4,4-4s4,1.8,4,4    S26.2,29,24,29z" fill="#464C63"/><path d="M42,22h-0.3c-0.5-2.7-1.5-5.2-3.1-7.4l0.2-0.2c1.2-1.2,1.2-3.1,0-4.2c-0.6-0.6-1.4-0.9-2.1-0.9    s-1.5,0.3-2.1,0.9l-0.2,0.2C32.2,8.8,30,7.7,27,7.3V7c0-1.7-1.3-3-3-3s-3,1.3-3,3v0.3c-3,0.5-5.2,1.5-7.4,3.1l-0.2-0.2    c-0.6-0.6-1.4-0.9-2.1-0.9s-1.5,0.3-2.1,0.9c-1.2,1.2-1.2,3.1,0,4.2l0.2,0.2c-1.5,2.2-2.6,4.7-3.1,7.4H6c-1.7,0-3,1.3-3,3    s1.3,3,3,3h0.3c0.5,2.7,1.5,5.2,3.1,7.4l1.4-1.4c-1.2-1.8-2.1-3.8-2.5-6h5.1l0,0c0.2,0.8,0.6,1.6,1,2.4l-5.2,5.2    c-1.2,1.2-1.2,3.1,0,4.2c0.6,0.6,1.4,0.9,2.1,0.9s1.5-0.3,2.1-0.9l0.2-0.2c2.2,1.5,4.4,2.6,7.4,3.1V43c0,1.7,1.3,3,3,3s3-1.3,3-3    v-0.3c3-0.5,5.2-1.5,7.4-3.1l0.2,0.2c0.6,0.6,1.4,0.9,2.1,0.9s1.5-0.3,2.1-0.9c1.2-1.2,1.2-3.1,0-4.2l-5.2-5.2    c0.4-0.7,0.7-1.5,1-2.4l0,0h5.1c-0.4,2.2-1.3,4.2-2.5,6l1.4,1.4c1.5-2.2,2.6-4.7,3.1-7.4H42c1.7,0,3-1.3,3-3S43.7,22,42,22z     M27,14.4V9.3c2,0.4,4.2,1.3,6,2.5l-3.6,3.6C28.6,15,27.8,14.7,27,14.4C27,14.4,27,14.4,27,14.4z M23,7c0-0.6,0.4-1,1-1s1,0.4,1,1    v7.1c0,0-0.7-0.1-1-0.1s-1,0-1,0.1V7z M21,9.3v5.1l0,0c-0.8,0.2-1.6,0.6-2.4,1L15,11.8C16.8,10.6,19,9.7,21,9.3z M10.6,11.6    c0.3-0.3,0.6-0.3,0.7-0.3c0.2,0,0.5,0,0.7,0.3l5,5c-0.5,0.4-1,0.9-1.4,1.4l0,0l-5-5C10.2,12.6,10.2,12,10.6,11.6z M13,26H6    c-0.6,0-1-0.4-1-1s0.4-1,1-1H13c0,0.3-0.1,0.7-0.1,1S13,25.7,13,26z M13.4,22L13.4,22l-5.1,0c0.4-2.2,1.3-4.2,2.5-6l3.6,3.6    C14,20.4,13.7,21.2,13.4,22z M12,38.4c-0.3,0.3-0.6,0.3-0.7,0.3c-0.2,0-0.5,0-0.7-0.3c-0.4-0.4-0.4-1,0-1.4l5-5l0,0    c0.4,0.5,0.9,1,1.4,1.4l0,0L12,38.4z M21,35.6v5.1c-2-0.4-4.2-1.3-6-2.5l3.6-3.6C19.4,35,20.2,35.3,21,35.6L21,35.6z M25,43    c0,0.6-0.4,1-1,1s-1-0.4-1-1v-7.1c0,0,0.7,0.1,1,0.1s1,0,1-0.1V43z M24,34c-5,0-9-4-9-9c0-5,4-9,9-9s9,4,9,9C33,30,29,34,24,34z     M27,40.7v-5.1l0,0c0.8-0.2,1.6-0.6,2.4-1l3.6,3.6C31.2,39.4,29,40.3,27,40.7z M37.4,37c0.4,0.4,0.4,1,0,1.4    c-0.3,0.3-0.6,0.3-0.7,0.3c-0.2,0-0.5,0-0.7-0.3l-5-5c0,0,0,0,0,0c0.5-0.4,1-0.9,1.4-1.4L37.4,37z M32.5,18    c-0.4-0.5-0.9-1-1.4-1.4l5-5c0.3-0.3,0.6-0.3,0.7-0.3c0.2,0,0.5,0,0.7,0.3c0.4,0.4,0.4,1,0,1.4L32.5,18z M33.6,19.6l3.6-3.6    c1.2,1.8,2.1,3.8,2.5,6h-5.1l0,0C34.3,21.2,34,20.4,33.6,19.6z M42,26h-7.1c0-0.3,0.1-0.7,0.1-1s0-0.7-0.1-1H42c0.6,0,1,0.4,1,1    S42.6,26,42,26z" fill="#464C63"/></g><path d="M47.2,49h-8.6c-0.9,0-1.6-0.7-1.6-1.6v-0.8c0-0.9,0.7-1.6,1.6-1.6h8.6c0.9,0,1.6,0.7,1.6,1.6v0.8   C48.8,48.3,48.1,49,47.2,49z" fill="#FFE2A9"/><path d="M48.5,49H37.3c-0.2,0-0.3-0.2-0.3-0.3v-1.3c0-0.2,0.2-0.3,0.3-0.3h11.1c0.2,0,0.3,0.2,0.3,0.3v1.3   C48.8,48.8,48.7,49,48.5,49z" fill="#FDBE6A"/><path d="M47.2,45h-8.6c-0.9,0-1.6-0.7-1.6-1.6v-0.8c0-0.9,0.7-1.6,1.6-1.6h8.6c0.9,0,1.6,0.7,1.6,1.6v0.8   C48.8,44.3,48.1,45,47.2,45z" fill="#FDBE6A"/><path d="M47.2,41h-8.6c-0.9,0-1.6-0.7-1.6-1.6v-0.8c0-0.9,0.7-1.6,1.6-1.6h8.6c0.9,0,1.6,0.7,1.6,1.6v0.8   C48.8,40.3,48.1,41,47.2,41z" fill="#FDBE6A"/><path d="M48.5,43H37.3c-0.2,0-0.3-0.2-0.3-0.3v-1.3c0-0.2,0.2-0.3,0.3-0.3h11.1c0.2,0,0.3,0.2,0.3,0.3v1.3   C48.8,42.8,48.7,43,48.5,43z" fill="#FFE2A9"/><path d="M48.5,39H37.3c-0.2,0-0.3-0.2-0.3-0.3v-1.3c0-0.2,0.2-0.3,0.3-0.3h11.1c0.2,0,0.3,0.2,0.3,0.3v1.3   C48.8,38.9,48.7,39,48.5,39z" fill="#FFE2A9"/><g><path d="M47.5,46c0.3,0,0.5,0.2,0.5,0.5v1c0,0.3-0.2,0.5-0.5,0.5h-9c-0.3,0-0.5-0.2-0.5-0.5v-1    c0-0.3,0.2-0.5,0.5-0.5H47.5 M47.5,44h-9c-1.4,0-2.5,1.1-2.5,2.5v1c0,1.4,1.1,2.5,2.5,2.5h9c1.4,0,2.5-1.1,2.5-2.5v-1    C50,45.1,48.9,44,47.5,44L47.5,44z" fill="#464C63"/></g><path d="M47.5,42c0.3,0,0.5,0.2,0.5,0.5v1c0,0.3-0.2,0.5-0.5,0.5h-9c-0.3,0-0.5-0.2-0.5-0.5v-1   c0-0.3,0.2-0.5,0.5-0.5H47.5 M47.5,40h-9c-1.4,0-2.5,1.1-2.5,2.5v1c0,1.4,1.1,2.5,2.5,2.5h9c1.4,0,2.5-1.1,2.5-2.5v-1   C50,41.1,48.9,40,47.5,40L47.5,40z" fill="#464C63"/><path d="M47.5,38c0.3,0,0.5,0.2,0.5,0.5v1c0,0.3-0.2,0.5-0.5,0.5h-9c-0.3,0-0.5-0.2-0.5-0.5v-1   c0-0.3,0.2-0.5,0.5-0.5H47.5 M47.5,36h-9c-1.4,0-2.5,1.1-2.5,2.5v1c0,1.4,1.1,2.5,2.5,2.5h9c1.4,0,2.5-1.1,2.5-2.5v-1   C50,37.1,48.9,36,47.5,36L47.5,36z" fill="#464C63"/><path d="M47.2,37h-8.6c-0.9,0-1.6-0.7-1.6-1.6v-0.8c0-0.9,0.7-1.6,1.6-1.6h8.6c0.9,0,1.6,0.7,1.6,1.6v0.8   C48.8,36.3,48.1,37,47.2,37z" fill="#FDBE6A"/><path d="M47.2,33h-8.6c-0.9,0-1.6-0.7-1.6-1.6v-0.8c0-0.9,0.7-1.6,1.6-1.6h8.6c0.9,0,1.6,0.7,1.6,1.6v0.8   C48.8,32.3,48.1,33,47.2,33z" fill="#FDBE6A"/><path d="M48.5,35H37.3c-0.2,0-0.3-0.2-0.3-0.3v-1.3c0-0.2,0.2-0.3,0.3-0.3h11.1c0.2,0,0.3,0.2,0.3,0.3v1.3   C48.8,34.9,48.7,35,48.5,35z" fill="#FFE2A9"/><path d="M48.5,31H37.3c-0.2,0-0.3-0.2-0.3-0.3v-1.3c0-0.2,0.2-0.3,0.3-0.3h11.1c0.2,0,0.3,0.2,0.3,0.3v1.3   C48.8,30.8,48.7,31,48.5,31z" fill="#FFE2A9"/><path d="M47.5,34c0.3,0,0.5,0.2,0.5,0.5v1c0,0.3-0.2,0.5-0.5,0.5h-9c-0.3,0-0.5-0.2-0.5-0.5v-1   c0-0.3,0.2-0.5,0.5-0.5H47.5 M47.5,32h-9c-1.4,0-2.5,1.1-2.5,2.5v1c0,1.4,1.1,2.5,2.5,2.5h9c1.4,0,2.5-1.1,2.5-2.5v-1   C50,33.1,48.9,32,47.5,32L47.5,32z" fill="#464C63"/><path d="M47.5,30c0.3,0,0.5,0.2,0.5,0.5v1c0,0.3-0.2,0.5-0.5,0.5h-9c-0.3,0-0.5-0.2-0.5-0.5v-1   c0-0.3,0.2-0.5,0.5-0.5H47.5 M47.5,28h-9c-1.4,0-2.5,1.1-2.5,2.5v1c0,1.4,1.1,2.5,2.5,2.5h9c1.4,0,2.5-1.1,2.5-2.5v-1   C50,29.1,48.9,28,47.5,28L47.5,28z" fill="#464C63"/><path d="M35.1,49h-8.6c-0.9,0-1.6-0.7-1.6-1.6v-0.8c0-0.9,0.7-1.6,1.6-1.6h8.6c0.9,0,1.6,0.7,1.6,1.6v0.8   C36.8,48.3,36,49,35.1,49z" fill="#FDBE6A"/><path d="M35.1,45h-8.6c-0.9,0-1.6-0.7-1.6-1.6v-0.8c0-0.9,0.7-1.6,1.6-1.6h8.6c0.9,0,1.6,0.7,1.6,1.6v0.8   C36.8,44.3,36,45,35.1,45z" fill="#FDBE6A"/><path d="M36.7,47H25.5c-0.2,0-0.3-0.2-0.3-0.3v-1.3c0-0.2,0.2-0.3,0.3-0.3h11.1c0.2,0,0.3,0.2,0.3,0.3v1.3   C37,46.8,36.8,47,36.7,47z" fill="#FFE2A9"/><path d="M36.7,43H25.5c-0.2,0-0.3-0.2-0.3-0.3v-1.3c0-0.2,0.2-0.3,0.3-0.3h11.1c0.2,0,0.3,0.2,0.3,0.3v1.3   C37,42.8,36.8,43,36.7,43z" fill="#FFE2A9"/><path d="M35.5,46c0.3,0,0.5,0.2,0.5,0.5v1c0,0.3-0.2,0.5-0.5,0.5h-9c-0.3,0-0.5-0.2-0.5-0.5v-1   c0-0.3,0.2-0.5,0.5-0.5H35.5 M35.5,44h-9c-1.4,0-2.5,1.1-2.5,2.5v1c0,1.4,1.1,2.5,2.5,2.5h9c1.4,0,2.5-1.1,2.5-2.5v-1   C38,45.1,36.8,44,35.5,44L35.5,44z" fill="#464C63"/><path d="M35.5,42c0.3,0,0.5,0.2,0.5,0.5v1c0,0.3-0.2,0.5-0.5,0.5h-9c-0.3,0-0.5-0.2-0.5-0.5v-1   c0-0.3,0.2-0.5,0.5-0.5H35.5 M35.5,40h-9c-1.4,0-2.5,1.1-2.5,2.5v1c0,1.4,1.1,2.5,2.5,2.5h9c1.4,0,2.5-1.1,2.5-2.5v-1   C38,41.1,36.9,40,35.5,40L35.5,40z" fill="#464C63"/><path d="M35.1,41h-8.6c-0.9,0-1.6-0.7-1.6-1.6v-0.8c0-0.9,0.7-1.6,1.6-1.6h8.6c0.9,0,1.6,0.7,1.6,1.6v0.8   C36.8,40.3,36,41,35.1,41z" fill="#FDBE6A"/><path d="M23.2,49h-8.6c-0.9,0-1.6-0.7-1.6-1.6v-0.8c0-0.9,0.7-1.6,1.6-1.6h8.6c0.9,0,1.6,0.7,1.6,1.6v0.8   C24.8,48.3,24.1,49,23.2,49z" fill="#FDBE6A"/><path d="M23.2,45h-8.6c-0.9,0-1.6-0.7-1.6-1.6v-0.8c0-0.9,0.7-1.6,1.6-1.6h8.6c0.9,0,1.6,0.7,1.6,1.6v0.8   C24.8,44.3,24.1,45,23.2,45z" fill="#FDBE6A"/><path d="M36.7,39H25.5c-0.2,0-0.3-0.2-0.3-0.3v-1.3c0-0.2,0.2-0.3,0.3-0.3h11.1c0.2,0,0.3,0.2,0.3,0.3v1.3   C37,38.9,36.8,39,36.7,39z" fill="#FFE2A9"/><path d="M24.6,47H13.4c-0.2,0-0.3-0.2-0.3-0.3v-1.3c0-0.2,0.2-0.3,0.3-0.3h11.1c0.2,0,0.3,0.2,0.3,0.3v1.3   C24.9,46.8,24.8,47,24.6,47z" fill="#FFE2A9"/><path d="M24.6,43H13.4c-0.2,0-0.3-0.2-0.3-0.3v-1.3c0-0.2,0.2-0.3,0.3-0.3h11.1c0.2,0,0.3,0.2,0.3,0.3v1.3   C24.9,42.8,24.8,43,24.6,43z" fill="#FFE2A9"/><path d="M23.5,46c0.3,0,0.5,0.2,0.5,0.5v1c0,0.3-0.2,0.5-0.5,0.5h-9c-0.3,0-0.5-0.2-0.5-0.5v-1   c0-0.3,0.2-0.5,0.5-0.5H23.5 M23.5,44h-9c-1.4,0-2.5,1.1-2.5,2.5v1c0,1.4,1.1,2.5,2.5,2.5h9c1.4,0,2.5-1.1,2.5-2.5v-1   C26,45.1,24.9,44,23.5,44L23.5,44z" fill="#464C63"/><path d="M23.5,42c0.3,0,0.5,0.2,0.5,0.5v1c0,0.3-0.2,0.5-0.5,0.5h-9c-0.3,0-0.5-0.2-0.5-0.5v-1   c0-0.3,0.2-0.5,0.5-0.5H23.5 M23.5,40h-9c-1.4,0-2.5,1.1-2.5,2.5v1c0,1.4,1.1,2.5,2.5,2.5h9c1.4,0,2.5-1.1,2.5-2.5v-1   C26,41.1,24.9,40,23.5,40L23.5,40z" fill="#464C63"/><path d="M35.5,38c0.3,0,0.5,0.2,0.5,0.5v1c0,0.3-0.2,0.5-0.5,0.5h-9c-0.3,0-0.5-0.2-0.5-0.5v-1   c0-0.3,0.2-0.5,0.5-0.5H35.5 M35.5,36h-9c-1.4,0-2.5,1.1-2.5,2.5v1c0,1.4,1.1,2.5,2.5,2.5h9c1.4,0,2.5-1.1,2.5-2.5v-1   C38,37.1,36.9,36,35.5,36L35.5,36z" fill="#464C63"/><path d="M47.2,29h-8.6c-0.9,0-1.6-0.7-1.6-1.6v-0.8c0-0.9,0.7-1.6,1.6-1.6h8.6c0.9,0,1.6,0.7,1.6,1.6v0.8   C48.8,28.3,48.1,29,47.2,29z" fill="#FDBE6A"/><path d="M48.5,26.9H37.3c-0.2,0-0.3-0.2-0.3-0.3v-1.3c0-0.2,0.2-0.3,0.3-0.3l11.1,0c0.2,0,0.3,0.2,0.3,0.3v1.3   C48.8,26.8,48.7,26.9,48.5,26.9z" fill="#FFE2A9"/><path d="M47.5,26c0.3,0,0.5,0.2,0.5,0.5v1c0,0.3-0.2,0.5-0.5,0.5h-9c-0.3,0-0.5-0.2-0.5-0.5v-1   c0-0.3,0.2-0.5,0.5-0.5H47.5 M47.5,24h-9c-1.4,0-2.5,1.1-2.5,2.5v1c0,1.4,1.1,2.5,2.5,2.5h9c1.4,0,2.5-1.1,2.5-2.5v-1   C50,25.1,48.9,24,47.5,24L47.5,24z" fill="#464C63"/><path d="M47.2,25h-8.6c-0.9,0-1.6-0.7-1.6-1.6v-0.8c0-0.9,0.7-1.6,1.6-1.6h8.6c0.9,0,1.6,0.7,1.6,1.6v0.8   C48.8,24.3,48.1,25,47.2,25z" fill="#FDBE6A"/><path d="M48.5,23H37.3c-0.2,0-0.3-0.2-0.3-0.3v-1.3c0-0.2,0.2-0.3,0.3-0.3h11.1c0.2,0,0.3,0.1,0.3,0.3v1.3   C48.8,22.8,48.7,23,48.5,23z" fill="#FFE2A9"/><path d="M47.5,22c0.3,0,0.5,0.2,0.5,0.5v1c0,0.3-0.2,0.5-0.5,0.5h-9c-0.3,0-0.5-0.2-0.5-0.5v-1   c0-0.3,0.2-0.5,0.5-0.5H47.5 M47.5,20h-9c-1.4,0-2.5,1.1-2.5,2.5v1c0,1.4,1.1,2.5,2.5,2.5h9c1.4,0,2.5-1.1,2.5-2.5v-1   C50,21.1,48.9,20,47.5,20L47.5,20z" fill="#464C63"/></g></svg>